<svg width="82" height="24" viewBox="0 0 82 24" fill="none" xmlns="http://www.w3.org/2000/svg">
<g clip-path="url(#clip0_6002_662)">
<mask id="mask0_6002_662" style="mask-type:luminance" maskUnits="userSpaceOnUse" x="0" y="0" width="81" height="25">
<path d="M80.7647 0.00195312H0V24.002H80.7647V0.00195312Z" fill="white"/>
</mask>
<g mask="url(#mask0_6002_662)">
<path d="M40.0903 8.63053C40.0149 7.95993 39.7032 7.44044 39.1553 7.07209C38.6076 6.699 37.9182 6.51248 37.0869 6.51248C36.4919 6.51248 35.977 6.60692 35.5425 6.79584C35.1083 6.98001 34.7704 7.23501 34.5295 7.56088C34.2936 7.88201 34.1754 8.24799 34.1754 8.65886C34.1754 9.00362 34.2558 9.30113 34.4164 9.55144C34.5816 9.80173 34.7966 10.0119 35.0609 10.1819C35.3302 10.3472 35.6182 10.4865 35.9253 10.5998C36.2323 10.7085 36.5274 10.7982 36.8108 10.869L38.2274 11.2374C38.6902 11.3507 39.1649 11.5042 39.6512 11.6978C40.1377 11.8914 40.5887 12.1465 41.0042 12.4629C41.42 12.7793 41.7551 13.1713 42.01 13.6388C42.27 14.1063 42.3996 14.666 42.3996 15.3177C42.3996 16.1394 42.1874 16.869 41.7622 17.5066C41.3421 18.1441 40.7302 18.6471 39.9276 19.0154C39.1294 19.3838 38.1638 19.568 37.0302 19.568C35.944 19.568 35.0042 19.3956 34.211 19.0508C33.4174 18.7061 32.7965 18.2173 32.3477 17.5845C31.8992 16.9469 31.6514 16.1913 31.604 15.3177H33.8002C33.8426 15.8419 34.0124 16.2787 34.3101 16.6282C34.6124 16.9729 34.997 17.2303 35.4646 17.4003C35.9371 17.5656 36.4542 17.6482 37.0162 17.6482C37.6349 17.6482 38.185 17.5514 38.6666 17.3578C39.1531 17.1595 39.5355 16.8856 39.8142 16.5361C40.0928 16.1819 40.2322 15.7687 40.2322 15.2964C40.2322 14.8667 40.1094 14.5148 39.8637 14.2409C39.6228 13.967 39.2946 13.7403 38.8791 13.5609C38.4683 13.3814 38.003 13.2232 37.4837 13.0863L35.7694 12.6187C34.6074 12.3023 33.6867 11.8371 33.0066 11.2232C32.3312 10.6093 31.9936 9.79699 31.9936 8.78637C31.9936 7.95049 32.2202 7.22085 32.6737 6.59748C33.1269 5.9741 33.7409 5.49005 34.5155 5.14529C35.29 4.79583 36.1637 4.62109 37.1365 4.62109C38.1189 4.62109 38.9854 4.79346 39.7363 5.13822C40.4918 5.48294 41.0868 5.95758 41.5213 6.56207C41.9558 7.16182 42.1824 7.85131 42.2014 8.63053H40.0903ZM45.0153 19.3271V4.81942H54.111V6.70373H47.2043V11.124H53.6366V13.0012H47.2043V17.4428H54.1961V19.3271H45.0153ZM58.2605 19.3271H55.9369L61.1577 4.81942H63.6867L68.9075 19.3271H66.5839L62.4823 7.45462H62.3692L58.2605 19.3271ZM58.6501 13.6459H66.1874V15.4877H58.6501V13.6459ZM71.0023 19.3271V4.81942H73.1913V17.4428H79.7652V19.3271H71.0023Z" fill="white" fill-opacity="0.64"/>
<path d="M14.7706 7.0847C15.5319 6.15472 16.2122 5.24278 17.174 4.56018C18.1339 3.87899 19.3691 3.4665 20.5059 3.42526C22.7052 3.3455 24.8017 4.68162 26.1257 6.64622C26.1849 6.73411 26.2686 6.84121 26.3096 6.93983C29.3318 11.5588 26.2861 18.5994 21.428 19.214C20.9261 19.2774 20.402 19.2691 19.896 19.2894L19.1301 19.3197C18.9065 19.3283 18.6755 19.3405 18.4534 19.2959L18.3641 19.2683C17.276 18.8796 16.9995 17.0417 18.0522 16.4087C18.4147 16.1907 18.898 16.2331 19.3007 16.2164L20.5602 16.1631C24.473 15.8588 26.1114 10.1526 22.9016 7.41191C21.6614 6.40179 20.0267 6.26901 18.7327 7.16496C18.1311 7.66918 17.6396 8.28645 17.1312 8.90259L10.3486 17.0793C9.89877 17.5784 9.43511 18.0442 8.87675 18.3859C7.43235 19.2696 5.7829 19.3133 4.24151 18.6527C0.572997 17.0803 -1.12743 12.0749 0.807783 8.24739C1.97103 5.68457 3.98468 4.12351 6.54099 4.01741C8.08581 3.95326 9.63237 4.52848 10.8756 5.5861C11.2226 5.88137 11.5417 6.1833 11.6779 6.66997C12.0413 7.97002 10.8077 9.12215 9.68137 8.42063C9.37336 8.22875 9.10503 7.96267 8.80247 7.76147C7.12559 6.64619 5.11296 6.99119 3.91249 8.70324C3.21013 9.82488 2.86772 11.1693 3.05537 12.5454C3.20284 13.6267 3.66881 14.6774 4.47287 15.3199C5.53202 16.1663 6.92034 16.1858 7.95746 15.3297C8.34407 15.0106 8.67527 14.56 8.99828 14.162L14.7706 7.0847Z" fill="white" fill-opacity="0.64"/>
</g>
</g>
<defs>
<clipPath id="clip0_6002_662">
<rect width="81.039" height="24" fill="white"/>
</clipPath>
</defs>
</svg>
