<svg aria-hidden="true" style="position: absolute; width: 0; height: 0; overflow: hidden;" version="1.1" xmlns="http://www.w3.org/2000/svg" xmlns:xlink="http://www.w3.org/1999/xlink">
<defs>
<symbol id="icon-arrow" viewBox="0 0 32 32">
<path stroke-linejoin="miter" stroke-linecap="butt" stroke-miterlimit="4" stroke-width="4.5714" d="M1.616 30.263l27.977-27.977M29.593 2.286v27.977M29.593 2.286h-27.977"></path>
</symbol>
<symbol id="icon-facebook" viewBox="0 0 32 32">
<path stroke-linejoin="miter" stroke-linecap="butt" stroke-miterlimit="4" stroke-width="2" d="M4 13.6v5.317c0 3.507 0 5.261 0.793 6.548 0.437 0.709 1.034 1.306 1.743 1.743 1.287 0.793 3.040 0.793 6.548 0.793h5.317c4 0 6 0 7.401-1.019 0.453-0.329 0.851-0.727 1.18-1.18 1.019-1.402 1.019-3.402 1.019-7.401v-4.8c0-4 0-6-1.019-7.402-0.329-0.453-0.727-0.851-1.18-1.18-1.402-1.019-3.402-1.019-7.401-1.019h-4.8c-4 0-6 0-7.402 1.019-0.453 0.329-0.851 0.727-1.18 1.18-1.019 1.402-1.019 3.402-1.019 7.402z"></path>
<path d="M19.517 12.661c-0.512 0.526-0.48 0.955-0.48 1.871v1.443h3.407l-0.694 2.886h-2.713v9.139h-3.111v-9.139h-2.593v-2.886h2.593v-1.443c0-1.008 0.139-2.63 1.283-3.805 1.289-1.324 2.866-1.667 5.458-1.186v2.886c-2.011-0.509-2.878-0.044-3.149 0.234z"></path>
</symbol>
<symbol id="icon-help-circle" viewBox="0 0 32 32">
<path stroke-linejoin="miter" stroke-linecap="butt" stroke-miterlimit="4" stroke-width="2" d="M16 29.333c7.364 0 13.333-5.97 13.333-13.333s-5.97-13.333-13.333-13.333c-7.364 0-13.333 5.97-13.333 13.333s5.97 13.333 13.333 13.333z"></path>
<path stroke-linejoin="miter" stroke-linecap="round" stroke-miterlimit="4" stroke-width="2" d="M13.333 12c0-1.473 1.194-2.667 2.667-2.667s2.667 1.194 2.667 2.667c0 0.531-0.155 1.026-0.422 1.441-0.797 1.239-2.244 2.42-2.244 3.892v0.667"></path>
<path stroke-linejoin="round" stroke-linecap="round" stroke-miterlimit="4" stroke-width="2.6667" d="M15.99 22.666h0.012"></path>
</symbol>
<symbol id="icon-hot-price" viewBox="0 0 32 32">
<path stroke-linejoin="round" stroke-linecap="butt" stroke-miterlimit="4" stroke-width="2" d="M16 29.333c5.891 0 10.667-4.776 10.667-10.667 0-8-10.667-16-10.667-16-0.518 3.316-1.025 5.095-2.667 8-1.601-0.74-2-1.333-2.667-3-2.667 3-5.333 7-5.333 11 0 5.891 4.776 10.667 10.667 10.667z"></path>
<path stroke-linejoin="round" stroke-linecap="round" stroke-miterlimit="4" stroke-width="2" d="M13.333 22.667l5.333-5.333"></path>
<path stroke-linejoin="round" stroke-linecap="round" stroke-miterlimit="4" stroke-width="2.6667" d="M13.333 17.333h0.012M18.655 22.667h0.012"></path>
</symbol>
<symbol id="icon-lightning" viewBox="0 0 22 32">
<path d="M10.048 1.037c0.881-1.023 2.237-1.306 3.4-0.774 1.157 0.529 1.845 1.721 1.845 3.023v9.432h3.827c1.51 0 2.452 1.084 2.81 2.046 0.363 0.975 0.324 2.236-0.427 3.27l-9.228 12.714c-0.869 1.197-2.329 1.557-3.57 0.989-1.157-0.53-1.845-1.721-1.845-3.023v-9.431h-3.827c-1.51 0-2.452-1.084-2.81-2.046-0.363-0.975-0.324-2.236 0.427-3.27l9.228-12.714 0.169-0.215zM10.552 26.835l7.566-10.425h-3.487c-1.991 0-3.031-1.819-3.031-3.284v-7.963l-7.566 10.427h3.487c1.991 0 3.031 1.819 3.031 3.284v7.962z"></path>
</symbol>
<symbol id="icon-linkedin" viewBox="0 0 32 32">
<path stroke-linejoin="round" stroke-linecap="butt" stroke-miterlimit="4" stroke-width="2" d="M4 13.6c0-4 0-6 1.019-7.402 0.329-0.453 0.727-0.851 1.18-1.18 1.402-1.019 3.402-1.019 7.402-1.019h4.8c4 0 6 0 7.401 1.019 0.453 0.329 0.851 0.727 1.18 1.18 1.019 1.402 1.019 3.402 1.019 7.402v4.8c0 4 0 6-1.019 7.401-0.329 0.453-0.727 0.851-1.18 1.18-1.402 1.019-3.402 1.019-7.401 1.019h-4.8c-4 0-6 0-7.402-1.019-0.453-0.329-0.851-0.727-1.18-1.18-1.019-1.402-1.019-3.402-1.019-7.401v-4.8z"></path>
<path d="M10.758 21.635v-8.727h2.42v8.727h-2.42zM11.973 11.782c-0.36 0-0.669-0.119-0.926-0.358-0.254-0.242-0.381-0.532-0.381-0.869 0-0.333 0.127-0.619 0.381-0.858 0.258-0.242 0.566-0.364 0.926-0.364s0.667 0.121 0.92 0.364c0.258 0.239 0.386 0.525 0.386 0.858 0 0.337-0.129 0.627-0.386 0.869-0.254 0.239-0.561 0.358-0.92 0.358z"></path>
<path d="M17.537 16.589v5.045h-2.421v-8.727h2.307v1.54h0.102c0.193-0.508 0.517-0.909 0.972-1.204 0.455-0.299 1.006-0.449 1.653-0.449 0.606 0 1.134 0.133 1.585 0.398s0.801 0.644 1.051 1.136c0.25 0.489 0.375 1.072 0.375 1.75v5.557h-2.42v-5.125c0.004-0.534-0.133-0.951-0.409-1.25-0.276-0.303-0.657-0.455-1.142-0.455-0.326 0-0.614 0.070-0.864 0.21-0.246 0.14-0.439 0.345-0.58 0.614-0.136 0.265-0.206 0.585-0.21 0.96z"></path>
</symbol>
<symbol id="icon-rate-star" viewBox="0 0 34 32">
<path d="M14.418 1.343c0.623-1.791 3.156-1.791 3.778 0l2.622 7.544c0.275 0.79 1.012 1.326 1.848 1.343l7.985 0.163c1.896 0.039 2.679 2.448 1.167 3.593l-6.364 4.825c-0.667 0.505-0.948 1.372-0.706 2.173l2.313 7.644c0.549 1.815-1.5 3.304-3.057 2.221l-6.555-4.562c-0.687-0.478-1.598-0.478-2.285 0l-6.555 4.562c-1.556 1.083-3.606-0.406-3.057-2.221l2.313-7.644c0.242-0.801-0.039-1.667-0.706-2.173l-6.364-4.825c-1.511-1.146-0.728-3.555 1.168-3.593l7.985-0.163c0.836-0.017 1.574-0.553 1.848-1.343l2.622-7.544z"></path>
</symbol>
<symbol id="icon-star" viewBox="0 0 32 32">
<path stroke-linejoin="round" stroke-linecap="butt" stroke-miterlimit="4" stroke-width="3.5556" d="M15.152 2.438c0.122-0.417 0.183-0.626 0.291-0.654 0.033-0.009 0.068-0.009 0.101 0 0.108 0.028 0.169 0.237 0.291 0.654l2.822 9.65c0.024 0.081 0.036 0.122 0.061 0.153 0.008 0.010 0.018 0.020 0.028 0.028 0.031 0.025 0.072 0.037 0.153 0.061l9.65 2.822c0.417 0.122 0.626 0.183 0.654 0.291 0.009 0.033 0.009 0.068 0 0.101-0.028 0.108-0.237 0.169-0.654 0.291l-9.65 2.822c-0.081 0.024-0.121 0.036-0.153 0.061-0.010 0.008-0.020 0.018-0.028 0.028-0.025 0.031-0.037 0.072-0.061 0.153l-2.822 9.65c-0.122 0.417-0.183 0.626-0.291 0.654-0.033 0.009-0.068 0.009-0.101 0-0.108-0.028-0.169-0.237-0.291-0.654l-2.822-9.65c-0.024-0.081-0.036-0.122-0.061-0.153-0.008-0.010-0.018-0.020-0.028-0.028-0.031-0.025-0.072-0.037-0.153-0.061l-9.65-2.822c-0.417-0.122-0.626-0.183-0.654-0.291-0.009-0.033-0.009-0.068 0-0.101 0.028-0.108 0.237-0.169 0.654-0.291l9.65-2.822c0.081-0.024 0.121-0.036 0.153-0.061 0.010-0.008 0.020-0.018 0.028-0.028 0.025-0.031 0.037-0.072 0.061-0.153l2.822-9.65z"></path>
</symbol>
<symbol id="icon-work-history" viewBox="0 0 32 32">
<path stroke-linejoin="round" stroke-linecap="round" stroke-miterlimit="4" stroke-width="2" d="M14.675 28h-1.868c-4.78 0-7.17 0-8.656-1.513s-1.485-3.949-1.485-8.82 0-7.307 1.485-8.82 3.875-1.513 8.656-1.513h5.070c4.78 0 7.171 0 8.656 1.513 1.142 1.164 1.406 2.875 1.467 5.82"></path>
<path stroke-linejoin="round" stroke-linecap="round" stroke-miterlimit="4" stroke-width="2" d="M25.133 25.133l-1.8-1.2v-3M17.333 23.333c0 3.314 2.686 6 6 6s6-2.686 6-6c0-3.314-2.686-6-6-6s-6 2.686-6 6z"></path>
<path stroke-linejoin="round" stroke-linecap="round" stroke-miterlimit="4" stroke-width="2" d="M21.333 7.333l-0.132-0.412c-0.66-2.053-0.99-3.080-1.776-3.667s-1.829-0.587-3.916-0.587h-0.351c-2.087 0-3.131 0-3.916 0.587s-1.116 1.614-1.776 3.667l-0.132 0.412"></path>
</symbol>
<symbol id="icon-youtube" viewBox="0 0 32 32">
<path stroke-linejoin="miter" stroke-linecap="butt" stroke-miterlimit="4" stroke-width="2" d="M13.333 25.333h5.333c3.745 0 5.618 0 6.963-0.899 0.582-0.389 1.082-0.889 1.471-1.471 0.899-1.345 0.899-3.218 0.899-6.963s0-5.618-0.899-6.963c-0.389-0.582-0.889-1.082-1.471-1.471-1.345-0.899-3.218-0.899-6.963-0.899h-5.333c-3.745 0-5.618 0-6.963 0.899-0.582 0.389-1.082 0.889-1.471 1.471-0.899 1.345-0.899 3.218-0.899 6.963s0 5.618 0.899 6.963c0.389 0.582 0.889 1.082 1.471 1.471 1.345 0.899 3.218 0.899 6.963 0.899z"></path>
<path stroke-linejoin="miter" stroke-linecap="butt" stroke-miterlimit="4" stroke-width="2" d="M17.040 13.853c1.649 0.825 2.474 1.237 2.613 1.854 0.043 0.193 0.043 0.393 0 0.586-0.139 0.617-0.963 1.029-2.613 1.854l-0.233 0.117c-1.372 0.686-2.058 1.029-2.597 0.832-0.171-0.062-0.326-0.159-0.458-0.283-0.418-0.395-0.418-1.161-0.418-2.695v-0.233c0-1.534 0-2.301 0.418-2.695 0.132-0.125 0.288-0.221 0.458-0.283 0.54-0.197 1.226 0.146 2.597 0.832l0.233 0.117z"></path>
</symbol>
</defs>
</svg>
