<!-- Generated by IcoMoon.io -->
<svg version="1.1" xmlns="http://www.w3.org/2000/svg" width="32" height="32" viewBox="0 0 32 32">
<path fill="none" stroke-linejoin="miter" stroke-linecap="butt" stroke-miterlimit="4" stroke-width="2" stroke="#000" d="M13.6 28h4.8c4 0 6 0 7.401-1.019 0.453-0.329 0.851-0.727 1.18-1.18 1.019-1.402 1.019-3.402 1.019-7.401v-4.8c0-4 0-6-1.019-7.402-0.329-0.453-0.727-0.851-1.18-1.18-1.402-1.019-3.402-1.019-7.401-1.019h-4.8c-4 0-6 0-7.402 1.019-0.453 0.329-0.851 0.727-1.18 1.18-1.019 1.402-1.019 3.402-1.019 7.402v4.8c0 4 0 6 1.019 7.401 0.329 0.453 0.727 0.851 1.18 1.18 1.402 1.019 3.402 1.019 7.402 1.019z"></path>
<path fill="none" stroke-linejoin="miter" stroke-linecap="butt" stroke-miterlimit="4" stroke-width="2" stroke="#000" d="M21.333 16c0 2.946-2.388 5.333-5.333 5.333s-5.333-2.388-5.333-5.333c0-2.946 2.388-5.333 5.333-5.333s5.333 2.388 5.333 5.333z"></path>
<path d="M24 9.333c0 0.736-0.597 1.333-1.333 1.333s-1.333-0.597-1.333-1.333c0-0.736 0.597-1.333 1.333-1.333s1.333 0.597 1.333 1.333z"></path>
</svg>
