<svg width="18" height="26" viewBox="0 0 18 26" fill="none" xmlns="http://www.w3.org/2000/svg">
<path d="M8.16365 0.842821C8.87924 0.0113164 9.98114 -0.218489 10.9263 0.213915C11.8666 0.644143 12.4254 1.61225 12.4254 2.66997V10.3331H15.5347C16.7614 10.3331 17.5267 11.2141 17.8179 11.9952C18.1132 12.7871 18.081 13.8122 17.4713 14.6524L9.97322 24.9825C9.26749 25.9548 8.08118 26.2474 7.07283 25.7862C6.13256 25.3559 5.57381 24.3878 5.57381 23.3301V15.667H2.46443C1.23784 15.667 0.472501 14.7861 0.181231 14.0049C-0.114038 13.213 -0.0819061 12.1878 0.527911 11.3477L8.02596 1.01763L8.16365 0.842821ZM8.57381 21.8038L14.7213 13.3331H11.8883C10.2706 13.3331 9.42537 11.8549 9.42537 10.6651V4.19536L3.27791 12.667H6.11092C7.7286 12.667 8.57381 14.1453 8.57381 15.335V21.8038Z" fill="white"/>
</svg>
