<svg viewBox="0 0 102.222 20" xmlns="http://www.w3.org/2000/svg" xmlns:xlink="http://www.w3.org/1999/xlink" width="102.222168" height="20.000000" fill="none">
	<rect id="Frame" width="102.222221" height="20.000000" x="0.000000" y="0.000000" fill="rgb(255,255,255)" fill-opacity="0" />
	<path id="Vector" d="M18.9068 18.6207L18.9068 18.6176C19.0165 18.7538 19.1196 18.8825 19.2155 19.0023C19.3557 19.1774 19.4806 19.3334 19.5887 19.466C19.7421 19.6602 19.8928 19.8365 20.0368 19.9934L17.3303 19.9934C17.0145 19.9934 16.7357 19.967 16.4855 19.9092L16.4839 19.9089L16.4823 19.9085C16.2392 19.8587 16.0185 19.7585 15.8068 19.6237C15.6023 19.4936 15.3911 19.2846 15.1593 19C15.1592 18.9998 15.1589 18.9995 15.1587 18.9993L9.61236 11.9669L3.73953 19.1266L3.73832 19.128L3.73716 19.1296C3.52089 19.4094 3.26072 19.6189 2.955 19.7718C2.65744 19.9206 2.24302 20 1.70215 20L0.0714111 20C0.283999 19.7977 0.498484 19.58 0.709648 19.3443C0.886143 19.1514 1.05827 18.9603 1.22495 18.7752C1.33117 18.6573 1.43519 18.5417 1.53672 18.4298L1.53861 18.4277L1.54042 18.4255L8.29881 10.2951L0.356223 0.127808L4.387 0.127808L10.2306 7.9555L16.6925 0.127808L19.4984 0.127808L11.5523 9.63265L18.9068 18.6207Z" fill="rgb(255,255,255)" fill-rule="nonzero" />
	<path id="Vector" d="M22.0046 20L27.7556 3.01295C27.7557 3.01267 27.7559 3.01238 27.756 3.0121C28.1005 2.03865 28.5673 1.29359 29.1578 0.774417C29.7329 0.268911 30.741 0 32.2186 0C33.4741 0 34.3921 0.213454 34.9999 0.631176L35.1039 0.71212C35.7165 1.18932 36.2159 1.95119 36.5873 3.01224L36.5874 3.01254L42.465 20L39.1178 20L37.2416 14.4522L26.1385 14.4522L24.3497 20L22.0046 20ZM33.8258 13.1871L36.7299 13.1804L33.7888 4.23375L33.7888 4.23348C33.644 3.78526 33.4501 3.39012 33.2067 3.04234C32.9338 2.65247 32.4134 2.48222 31.7008 2.48222C30.9054 2.48222 30.3288 2.65707 30.041 3.06169C29.7841 3.42271 29.596 3.81224 29.4774 4.23654L28.8125 6.32565C26.1385 13.1871 30.2607 13.1871 33.8258 13.1871Z" fill="rgb(255,255,255)" fill-rule="nonzero" />
	<path id="Vector" d="M60.0554 11.2776L60.0706 11.27C62.549 15.4902 64.721 17.8431 64.6481 9.60771L64.721 0.168091L66.915 0.168091L66.9017 17.0251C66.9017 17.0251 67.0588 18.7581 65.098 19.6078C64.2984 19.9544 62.9 19.9933 62.9 19.9933L49.5183 2.8038L49.5183 20L47.2916 20L47.2916 1.83286C47.2916 1.44248 47.3084 1.12765 47.3401 0.887524C47.3725 0.642373 47.4187 0.491958 47.4664 0.416649C47.5038 0.357598 47.5938 0.293656 47.7757 0.246236C47.9537 0.199776 48.1986 0.174816 48.5125 0.174816L51.3741 0.174816L60.0554 11.2776Z" fill="rgb(255,255,255)" fill-rule="nonzero" />
	<path id="Vector" d="M74.5976 0.703596C74.6311 0.547371 74.7133 0.420989 74.848 0.325598C74.9755 0.235291 75.2104 0.174805 75.5795 0.174805L77.6342 0.174805L77.6342 20L74.5333 20L74.5333 1.44282C74.5333 1.12668 74.5597 0.880687 74.5976 0.703596Z" fill="rgb(255,255,255)" fill-rule="nonzero" />
	<path id="Vector" d="M102.125 19.9934L99.4184 19.9934C99.1026 19.9934 98.8237 19.967 98.5735 19.9092L98.572 19.9089L98.5704 19.9085C98.3271 19.8587 98.1066 19.7585 97.8947 19.6237C97.6904 19.4936 97.4792 19.2846 97.2474 19C97.2473 18.9998 97.247 18.9995 97.2467 18.9993L91.7005 11.9669L85.8275 19.1266L85.8264 19.128L85.8252 19.1296C85.609 19.4094 85.3487 19.6189 85.0431 19.7718C84.7454 19.9206 84.3311 20 83.7901 20L82.1594 20C82.3721 19.7977 82.5865 19.58 82.7977 19.3443C82.9742 19.1514 83.1463 18.9603 83.313 18.7752C83.4193 18.6573 83.5232 18.5417 83.6248 18.4298L83.6266 18.4277L83.6284 18.4255L90.3869 10.2951L82.4443 0.127808L86.4751 0.127808L92.3186 7.9555L98.7806 0.127808L101.586 0.127808L93.6403 9.62589L100.763 18.3302C100.961 18.5749 101.142 18.8012 101.304 19.0023C101.444 19.1774 101.569 19.3334 101.677 19.466C101.83 19.6602 101.981 19.8365 102.125 19.9934Z" fill="rgb(255,255,255)" fill-rule="nonzero" />
</svg>
