<svg width="17" height="16" viewBox="0 0 17 16" fill="none" xmlns="http://www.w3.org/2000/svg">
<path d="M7.20897 0.671489C7.52026 -0.224071 8.78679 -0.224071 9.09809 0.67149L10.4092 4.44326C10.5465 4.83833 10.9152 5.1062 11.3333 5.11472L15.3257 5.19608C16.2736 5.2154 16.665 6.41994 15.9094 6.99275L12.7274 9.40518C12.3941 9.65787 12.2533 10.0913 12.3744 10.4916L13.5307 14.3137C13.8053 15.2212 12.7806 15.9656 12.0024 15.4241L8.72471 13.1433C8.38139 12.9044 7.92566 12.9044 7.58235 13.1433L4.30468 15.4241C3.52644 15.9656 2.50179 15.2212 2.77635 14.3137L3.93266 10.4916C4.05378 10.0913 3.91295 9.65787 3.57965 9.40518L0.397629 6.99275C-0.357903 6.41994 0.0334771 5.2154 0.981401 5.19608L4.97371 5.11472C5.39188 5.1062 5.76057 4.83833 5.8979 4.44326L7.20897 0.671489Z" fill="#FFDB7D"/>
</svg>
