<svg width="27" height="27" viewBox="0 0 27 27" fill="none" xmlns="http://www.w3.org/2000/svg">
<path d="M12.7849 2.05734C12.8879 1.70532 12.9394 1.52932 13.0305 1.50535C13.0583 1.49803 13.0875 1.49803 13.1153 1.50535C13.2064 1.52932 13.2579 1.70532 13.3608 2.05734L15.7421 10.1998C15.7621 10.2682 15.7721 10.3024 15.7935 10.3286C15.8005 10.3372 15.8084 10.3451 15.817 10.3522C15.8433 10.3736 15.8774 10.3836 15.9458 10.4036L24.0883 12.7848C24.4403 12.8878 24.6163 12.9392 24.6403 13.0303C24.6476 13.0581 24.6476 13.0874 24.6403 13.1152C24.6163 13.2063 24.4403 13.2577 24.0883 13.3607L15.9458 15.7419C15.8774 15.7619 15.8433 15.7719 15.817 15.7934C15.8084 15.8004 15.8005 15.8083 15.7935 15.8169C15.7721 15.8431 15.7621 15.8773 15.7421 15.9457L13.3608 24.0882C13.2579 24.4402 13.2064 24.6162 13.1153 24.6402C13.0875 24.6475 13.0583 24.6475 13.0305 24.6402C12.9394 24.6162 12.8879 24.4402 12.7849 24.0882L10.4037 15.9457C10.3837 15.8773 10.3737 15.8431 10.3523 15.8169C10.3452 15.8083 10.3373 15.8004 10.3287 15.7934C10.3025 15.7719 10.2683 15.7619 10.2 15.7419L2.05746 13.3607C1.70545 13.2577 1.52944 13.2063 1.50547 13.1152C1.49815 13.0874 1.49815 13.0581 1.50547 13.0303C1.52944 12.9392 1.70545 12.8878 2.05746 12.7848L10.2 10.4036C10.2683 10.3836 10.3025 10.3736 10.3287 10.3522C10.3373 10.3451 10.3452 10.3372 10.3523 10.3286C10.3737 10.3024 10.3837 10.2682 10.4037 10.1998L12.7849 2.05734Z" stroke="white" stroke-width="3" stroke-linejoin="round"/>
</svg>
