<svg width="74" height="24" viewBox="0 0 74 24" fill="none" xmlns="http://www.w3.org/2000/svg">
  <mask id="mask0_6002_688" style="mask-type:luminance" maskUnits="userSpaceOnUse" x="0" y="0" width="74" height="24">
    <path d="M73.0156 0H0V23.8026H73.0156V0Z" fill="white" />
  </mask>
  <g mask="url(#mask0_6002_688)">
    <path d="M11.2921 0.0210518C11.8872 -0.0246078 12.5101 0.00949708 13.1032 0.0708076C13.6546 0.12785 14.1963 0.201965 14.7354 0.337824C16.5515 0.795453 18.3033 1.75637 19.7216 2.96728C21.4471 4.44045 22.6518 6.45395 23.312 8.60526C23.4582 9.08147 23.564 9.55574 23.6409 10.0477C23.6661 10.2082 23.7027 10.3614 23.7153 10.5239L15.7956 10.5198C15.7275 10.4053 15.6931 10.2658 15.6422 10.1422C15.594 10.0251 15.5245 9.91064 15.4576 9.80324C14.8629 8.8492 13.8223 8.1284 12.7247 7.87988C11.9365 7.70137 10.8531 7.73591 10.1547 8.17733C10.2905 8.35645 10.4757 8.51765 10.6264 8.68823L11.4408 9.62784L12.6684 10.9296L15.7296 14.2179L17.0552 15.6263C17.1093 15.6893 17.1406 15.7413 17.1623 15.8216C17.1372 16.0349 16.9508 16.1844 16.8075 16.3298L16.2564 16.8727C15.2537 17.7803 13.916 18.3913 12.5664 18.5346C12.1005 18.5841 11.5652 18.571 11.0947 18.5447C10.829 18.5298 10.5495 18.468 10.291 18.4052C9.23742 18.1497 8.25044 17.6021 7.44528 16.8828C7.09061 16.5659 6.79359 16.2206 6.47646 15.8683L4.42871 15.864C4.26712 15.8631 3.58275 15.8234 3.48574 15.8907C3.48215 16.0686 3.57322 16.2297 3.65485 16.3828C3.79784 16.6509 3.95217 16.9193 4.12558 17.1689C5.1314 18.6172 6.53111 19.8289 8.17263 20.5085C8.86691 20.7959 9.59548 20.983 10.3345 21.1152C11.1584 21.2627 12.009 21.3018 12.8421 21.2179C13.1333 21.1885 13.4372 21.1214 13.7227 21.0582C14.3735 20.9142 15.011 20.7194 15.6224 20.4537C16.1344 20.2313 16.6437 19.974 17.1024 19.6547C18.6968 18.5446 19.9705 16.9522 20.5726 15.0997C20.759 14.5262 20.8719 13.925 20.9785 13.3325L23.202 13.3257C23.3022 13.3259 23.5309 13.2904 23.6211 13.3263C23.6358 13.3321 23.6463 13.3456 23.6588 13.3553L23.6648 13.4018C23.6768 13.6946 23.5746 14.0393 23.5183 14.3271C23.1335 16.2929 22.2171 18.0916 20.9288 19.6219C19.2463 21.6205 16.8327 23.0057 14.2774 23.5383C13.5906 23.6814 12.8929 23.7417 12.1949 23.8026L10.8123 23.7378C10.6074 23.7226 10.4032 23.723 10.199 23.6961C8.85635 23.5197 7.48065 23.0692 6.28868 22.4303C5.48734 22.0009 4.76102 21.4764 4.06795 20.8925C2.36368 19.4567 1.11687 17.57 0.467944 15.4411C0.259362 14.757 0.0962322 14.0279 0.0370459 13.3137C0.69819 13.2656 1.39044 13.3042 2.05449 13.3047L5.9425 13.3101L7.24767 13.3154C7.40951 13.3155 7.63905 13.2812 7.7906 13.3272C8.05319 13.407 8.16116 13.8305 8.28207 14.0493C8.76897 14.9302 9.75966 15.6193 10.7195 15.8897C11.6184 16.1428 12.7513 16.1057 13.5803 15.6469L12.9916 15.0299L11.1343 13.0346L8.81035 10.5491L7.26071 8.89149C7.00035 8.61168 6.70767 8.34255 6.47699 8.03937C6.57456 7.88872 6.69961 7.75549 6.81752 7.62045C7.0127 7.39685 7.21071 7.17757 7.43187 6.97867C8.82351 5.72711 10.5704 5.17132 12.4319 5.28212C13.8572 5.36698 15.2578 6.03143 16.3227 6.96083C16.6632 7.25803 16.9713 7.59777 17.272 7.9342C17.4607 7.95628 17.6582 7.94534 17.8482 7.94582L18.8838 7.9486L19.6999 7.95451C19.912 7.95903 20.1089 7.97414 20.3214 7.94701C20.2562 7.74338 20.1388 7.54785 20.0348 7.36163C19.733 6.82136 19.3733 6.32466 18.9705 5.85448C17.3416 3.95283 15.0259 2.7646 12.521 2.57656C10.0928 2.39423 7.64612 3.21926 5.80371 4.79288C4.29264 6.08352 3.05055 8.00595 2.7674 9.99226C2.74262 10.1661 2.73686 10.346 2.72327 10.5213L0 10.5401C0.0193677 10.1944 0.0931122 9.84626 0.159404 9.50691C0.574315 7.38374 1.64933 5.41746 3.09671 3.81903C5.18152 1.51665 8.19979 0.179502 11.2921 0.0210518Z" fill="white" fill-opacity="0.64" />
    <path d="M33.3231 9.84449C33.2695 9.34305 33.0436 8.9526 32.6455 8.67319C32.2511 8.39376 31.7383 8.25405 31.1067 8.25405C30.6628 8.25405 30.2819 8.32102 29.9641 8.45502C29.6465 8.58899 29.4035 8.77078 29.235 9.00045C29.0665 9.23012 28.9806 9.49233 28.9765 9.78707C28.9765 10.032 29.0321 10.2445 29.143 10.4244C29.258 10.6043 29.4131 10.7574 29.6081 10.8837C29.8034 11.0062 30.0196 11.1095 30.2571 11.1938C30.4943 11.278 30.7336 11.3488 30.9746 11.4062L32.0771 11.6818C32.5212 11.7852 32.9479 11.9249 33.3574 12.1009C33.771 12.277 34.1403 12.499 34.4657 12.767C34.7949 13.0349 35.0551 13.3583 35.2466 13.7373C35.4378 14.1162 35.5336 14.5603 35.5336 15.0694C35.5336 15.7583 35.3575 16.3651 35.0053 16.8895C34.6532 17.41 34.1441 17.8177 33.4782 18.1124C32.8158 18.4033 32.0139 18.5488 31.0724 18.5488C30.1576 18.5488 29.3633 18.4072 28.6895 18.1239C28.0196 17.8407 27.4953 17.4273 27.1164 16.8837C26.7412 16.3402 26.5384 15.678 26.5078 14.8971H28.6034C28.634 15.3067 28.7603 15.6473 28.9823 15.9191C29.2044 16.1909 29.4934 16.3938 29.8494 16.5277C30.2091 16.6617 30.6111 16.7287 31.0552 16.7287C31.5183 16.7287 31.924 16.6598 32.2724 16.522C32.6245 16.3804 32.9002 16.1851 33.0992 15.9363C33.298 15.6837 33.3996 15.389 33.4034 15.0521C33.3996 14.7459 33.3097 14.4933 33.1336 14.2942C32.9575 14.0914 32.7107 13.923 32.3929 13.789C32.0791 13.6512 31.7115 13.5287 31.2904 13.4215L29.9527 13.077C28.9844 12.8282 28.2186 12.4512 27.656 11.9459C27.0972 11.4368 26.8178 10.7612 26.8178 9.91912C26.8178 9.2263 27.0052 8.61961 27.3804 8.09904C27.7593 7.57846 28.2742 7.17463 28.925 6.88754C29.5758 6.59664 30.3124 6.45117 31.1355 6.45117C31.97 6.45117 32.7011 6.59664 33.3289 6.88754C33.9604 7.17463 34.4561 7.57462 34.8159 8.08754C35.1756 8.59664 35.3613 9.18227 35.3729 9.84449H33.3231ZM37.4326 18.3708V6.61195H41.842C42.7455 6.61195 43.5033 6.78038 44.1157 7.11721C44.7321 7.45404 45.1972 7.91722 45.511 8.50668C45.8288 9.09233 45.9877 9.75835 45.9877 10.5048C45.9877 11.2588 45.8288 11.9287 45.511 12.5143C45.1935 13.1 44.7246 13.5612 44.1044 13.8981C43.4841 14.2311 42.7207 14.3976 41.8135 14.3976H38.8911V12.6464H41.5263C42.0545 12.6464 42.4873 12.5545 42.824 12.3708C43.1608 12.1871 43.4096 11.9344 43.5703 11.6129C43.735 11.2914 43.8174 10.922 43.8174 10.5048C43.8174 10.0876 43.735 9.72007 43.5703 9.40239C43.4096 9.08468 43.159 8.83778 42.8182 8.6617C42.4815 8.4818 42.0469 8.39186 41.5149 8.39186H39.5628V18.3708H37.4326ZM49.9679 6.61195V18.3708H47.8377V6.61195H49.9679ZM61.9379 6.61195V18.3708H60.0431L54.5024 10.3612H54.4049V18.3708H52.2747V6.61195H54.1808L59.7157 14.6273H59.8193V6.61195H61.9379ZM64.2588 18.3708V6.61195H71.9067V8.3976H66.389V11.5899H71.5106V13.3756H66.389V16.5852H71.9527V18.3708H64.2588Z" fill="white" fill-opacity="0.64" />
  </g>
</svg>